<svg xmlns="http://www.w3.org/2000/svg" viewBox="0 0 10338 2881">
  <g transform="translate(0.000000,2881.000000) scale(0.100000,-0.100000)">
    <g fill="#ffffff">
      <path d="M5440 27844 c-19 -2 -93 -11 -165 -19 -71 -9 -166 -22 -210 -30 -44&#xA;-8 -138 -23 -210 -34 -71 -11 -159 -29 -193 -40 -35 -12 -94 -26 -130 -32 -37&#xA;-6 -83 -18 -102 -27 -19 -8 -82 -29 -140 -47 -148 -47 -257 -83 -315 -107 -27&#xA;-11 -72 -29 -100 -40 -27 -11 -87 -38 -132 -59 -44 -21 -87 -39 -95 -39 -8 0&#xA;-36 -14 -63 -31 -28 -17 -67 -38 -87 -45 -21 -7 -58 -27 -82 -44 -25 -16 -49&#xA;-30 -54 -30 -6 0 -34 -16 -63 -36 -30 -20 -72 -45 -94 -56 -22 -11 -49 -28&#xA;-60 -37 -11 -10 -40 -30 -65 -45 -25 -15 -72 -47 -105 -71 -33 -25 -78 -57&#xA;-100 -72 -224 -155 -380 -291 -610 -532 -93 -98 -195 -209 -225 -246 -30 -37&#xA;-71 -87 -90 -110 -19 -23 -51 -64 -70 -89 -19 -26 -48 -64 -65 -85 -16 -22&#xA;-42 -61 -58 -87 -15 -27 -38 -63 -50 -80 -38 -54 -126 -203 -178 -299 -17 -33&#xA;-40 -72 -50 -87 -11 -15 -26 -46 -34 -70 -14 -40 -40 -95 -116 -253 -28 -60&#xA;-46 -108 -119 -322 -21 -61 -43 -121 -49 -132 -7 -11 -21 -66 -32 -122 -11&#xA;-55 -30 -126 -41 -158 -11 -31 -30 -123 -43 -206 -14 -82 -31 -175 -40 -205&#xA;-58 -206 -57 -1178 2 -1405 24 -92 31 -132 44 -240 6 -55 22 -131 35 -170 13&#xA;-38 32 -111 43 -162 11 -50 29 -110 40 -132 12 -22 28 -71 37 -108 8 -38 26&#xA;-86 39 -108 13 -22 31 -67 40 -100 10 -33 28 -75 40 -95 13 -19 31 -60 40 -90&#xA;10 -30 28 -69 41 -86 13 -17 32 -54 42 -82 11 -27 30 -65 44 -83 14 -19 30&#xA;-49 36 -66 6 -18 22 -48 35 -65 14 -18 36 -56 51 -85 14 -28 30 -54 36 -58 6&#xA;-3 19 -23 29 -44 11 -21 36 -57 56 -82 19 -24 52 -65 73 -92 155 -198 244&#xA;-298 425 -477 152 -150 201 -195 297 -269 36 -28 85 -66 110 -86 25 -19 65&#xA;-50 88 -70 24 -19 47 -35 52 -35 4 0 25 -14 46 -31 22 -18 58 -40 80 -50 23&#xA;-10 47 -26 55 -35 7 -8 36 -27 63 -41 28 -14 60 -33 71 -44 11 -10 43 -28 70&#xA;-40 28 -12 57 -27 65 -34 32 -28 174 -95 189 -90 20 6 74 69 127 149 21 33 50&#xA;76 64 96 35 52 82 123 103 157 9 15 28 44 41 63 14 19 40 57 58 83 63 93 127&#xA;182 158 222 17 22 53 72 81 110 56 79 108 148 157 208 18 22 42 57 53 76 28&#xA;51 78 117 229 306 22 28 54 70 72 95 17 25 45 61 62 81 40 47 95 118 151 194&#xA;64 88 111 146 195 245 41 48 100 119 130 156 62 76 243 285 359 413 42 46 94&#xA;105 116 129 175 198 384 406 741 737 71 66 146 136 166 155 77 72 168 150 283&#xA;240 32 25 79 63 105 85 26 22 73 60 105 85 31 25 78 62 103 83 26 20 50 37 54&#xA;37 4 0 27 17 52 38 62 51 134 107 176 137 101 72 140 100 195 140 33 24 80 56&#xA;105 71 25 15 56 35 70 45 14 10 43 29 65 40 22 12 53 32 68 45 15 13 48 32 73&#xA;44 25 11 59 31 75 44 16 14 39 28 51 31 21 7 64 32 189 112 28 18 71 42 95 53&#xA;25 10 57 28 73 39 15 11 47 27 72 37 24 10 56 26 72 36 15 11 55 30 89 44 34&#xA;13 69 31 78 39 9 8 45 27 80 41 36 14 75 34 88 44 13 10 47 26 75 36 29 9 75&#xA;29 102 45 28 15 70 33 95 39 25 6 63 22 85 34 22 13 65 31 95 41 30 9 73 28&#xA;95 40 22 13 67 31 100 40 33 9 78 27 100 40 22 12 66 30 98 39 62 18 171 69&#xA;200 94 25 22 22 40 -24 117 -22 39 -51 96 -64 127 -13 32 -32 70 -43 85 -10&#xA;16 -25 44 -32 63 -7 19 -23 49 -35 65 -12 17 -36 58 -53 92 -18 34 -36 64 -42&#xA;68 -6 4 -24 33 -40 65 -16 32 -34 61 -40 65 -6 4 -22 30 -37 58 -14 29 -35 64&#xA;-47 78 -11 15 -29 39 -38 55 -10 16 -40 61 -68 99 -28 39 -62 88 -77 110 -14&#xA;22 -40 56 -57 76 -17 20 -53 64 -81 99 -143 178 -443 475 -630 624 -38 30 -85&#xA;67 -104 82 -18 16 -52 40 -75 56 -22 15 -54 38 -71 50 -87 66 -148 108 -157&#xA;108 -5 0 -35 18 -65 40 -31 22 -61 40 -67 40 -6 0 -33 16 -60 35 -27 19 -55&#xA;35 -61 35 -6 0 -37 15 -68 34 -31 19 -74 40 -94 46 -21 7 -60 24 -88 40 -27&#xA;15 -75 35 -105 45 -30 10 -74 29 -96 42 -23 13 -74 33 -114 44 -39 11 -81 26&#xA;-93 33 -12 8 -51 22 -87 31 -36 9 -112 31 -170 50 -242 77 -454 119 -835 166&#xA;-153 19 -598 34 -685 23z"></path>
      <path d="M23945 27840 c-71 -4 -161 -12 -200 -18 -38 -7 -185 -26 -325 -43&#xA;-175 -21 -277 -38 -325 -54 -38 -13 -108 -32 -155 -41 -47 -9 -97 -22 -112&#xA;-30 -14 -7 -73 -27 -130 -43 -148 -42 -305 -98 -343 -121 -18 -11 -57 -28 -87&#xA;-36 -29 -9 -69 -26 -88 -40 -20 -13 -57 -30 -84 -38 -26 -8 -64 -25 -84 -39&#xA;-21 -13 -58 -33 -84 -45 -26 -11 -63 -32 -81 -46 -19 -14 -38 -26 -44 -26 -5&#xA;0 -29 -14 -53 -31 -24 -17 -62 -43 -85 -58 -37 -23 -109 -72 -215 -146 -51&#xA;-36 -117 -85 -165 -125 -23 -19 -69 -55 -101 -80 -168 -130 -394 -360 -574&#xA;-584 -25 -31 -57 -71 -72 -90 -15 -18 -43 -55 -63 -82 -19 -27 -54 -75 -77&#xA;-108 -46 -63 -75 -105 -125 -182 -17 -27 -45 -69 -63 -94 -53 -77 -98 -153&#xA;-124 -207 -14 -28 -30 -54 -37 -58 -6 -4 -27 -40 -46 -79 -19 -39 -43 -87 -53&#xA;-106 -11 -19 -27 -51 -35 -70 -8 -19 -31 -62 -50 -95 -54 -93 -45 -129 40&#xA;-155 22 -7 49 -18 60 -25 11 -6 52 -22 90 -35 39 -13 95 -35 125 -50 30 -15&#xA;73 -33 95 -40 22 -7 63 -25 90 -40 28 -15 64 -31 80 -35 17 -3 50 -19 75 -35&#xA;25 -15 56 -31 70 -35 23 -6 178 -77 245 -112 48 -25 96 -49 145 -72 25 -11 56&#xA;-27 70 -35 14 -8 50 -27 80 -41 80 -38 160 -82 200 -110 19 -13 55 -33 80 -45&#xA;25 -11 70 -36 100 -55 30 -18 77 -46 103 -62 27 -15 69 -41 94 -58 25 -16 65&#xA;-41 88 -55 24 -14 51 -33 62 -42 10 -9 37 -27 60 -40 43 -24 133 -85 238 -163&#xA;33 -24 80 -56 105 -71 25 -15 59 -39 77 -53 33 -27 91 -69 153 -111 76 -52&#xA;136 -97 204 -155 97 -82 163 -135 205 -165 20 -14 50 -37 66 -52 17 -15 93&#xA;-82 170 -149 77 -68 176 -157 220 -198 44 -42 141 -132 215 -201 249 -232 351&#xA;-334 523 -525 94 -104 205 -226 246 -270 217 -230 341 -372 431 -494 25 -34&#xA;77 -99 115 -145 104 -124 128 -155 168 -216 20 -30 55 -77 77 -105 113 -141&#xA;168 -213 234 -310 19 -28 41 -57 51 -65 9 -7 23 -27 32 -44 9 -17 27 -44 40&#xA;-61 14 -16 38 -50 54 -75 44 -68 75 -112 102 -145 13 -16 32 -46 42 -65 10&#xA;-19 29 -48 42 -65 26 -32 71 -100 113 -170 14 -23 35 -55 48 -71 36 -46 106&#xA;-156 120 -188 7 -16 24 -43 38 -60 35 -43 88 -123 115 -171 11 -22 39 -64 61&#xA;-92 49 -64 79 -69 130 -24 18 16 51 34 73 40 22 6 57 22 78 36 21 14 55 32 76&#xA;40 21 7 60 29 86 49 25 20 52 36 58 36 7 0 28 13 47 28 19 16 46 35 60 42 42&#xA;22 192 122 253 170 32 25 76 59 97 75 198 153 513 451 623 589 34 43 78 98 97&#xA;122 94 118 152 196 195 264 17 27 50 80 75 120 71 113 127 211 155 270 15 30&#xA;33 66 41 80 8 14 22 41 31 60 9 19 31 68 50 109 19 40 41 98 49 127 8 30 23&#xA;72 34 93 10 22 29 74 40 117 11 44 32 113 45 154 13 41 31 114 40 162 8 48 24&#xA;108 35 133 18 43 30 122 65 430 8 72 22 177 31 235 19 125 16 718 -4 780 -6&#xA;19 -23 134 -36 255 -28 242 -37 298 -61 365 -9 25 -25 96 -35 157 -11 62 -30&#xA;139 -44 170 -13 32 -29 83 -36 113 -7 30 -23 78 -35 106 -13 29 -31 78 -40&#xA;110 -9 32 -28 80 -41 107 -14 26 -33 74 -43 107 -10 32 -27 71 -38 87 -11 15&#xA;-28 51 -38 78 -10 28 -29 66 -41 85 -13 19 -36 58 -51 87 -15 29 -43 80 -62&#xA;115 -18 35 -41 72 -52 83 -10 11 -25 38 -34 60 -9 21 -29 54 -43 73 -15 19&#xA;-36 50 -47 67 -21 34 -91 137 -147 216 -210 297 -577 659 -974 961 -112 85&#xA;-144 108 -176 124 -18 9 -46 28 -63 41 -66 53 -196 131 -315 188 -30 15 -75&#xA;39 -100 55 -25 15 -63 33 -85 40 -22 7 -52 22 -68 32 -15 11 -52 28 -83 39&#xA;-31 11 -79 33 -107 48 -29 16 -68 32 -87 36 -19 4 -64 19 -100 34 -36 16 -99&#xA;36 -140 46 -41 10 -94 27 -116 37 -23 10 -84 27 -135 37 -52 11 -124 29 -160&#xA;40 -65 21 -265 53 -564 91 -175 22 -455 31 -640 20z"></path>
      <path d="M73890 20614 c-14 -2 -95 -16 -180 -30 -149 -25 -205 -43 -330 -108&#xA;-206 -107 -409 -300 -509 -481 -113 -204 -132 -265 -171 -535 -14 -93 -11&#xA;-260 6 -335 9 -38 19 -105 24 -147 7 -59 17 -92 43 -140 19 -35 38 -74 42 -88&#xA;4 -14 21 -44 36 -67 16 -23 29 -46 29 -51 0 -32 228 -270 321 -335 66 -46 157&#xA;-103 184 -115 137 -63 177 -74 335 -98 199 -29 288 -30 445 -4 66 11 131 20&#xA;145 20 14 1 41 7 60 14 104 41 187 79 205 95 11 10 36 27 55 36 51 25 153 110&#xA;250 207 114 113 147 156 238 311 16 28 68 146 76 172 18 61 36 258 36 391 0&#xA;157 -23 314 -57 393 -8 20 -23 61 -34 92 -10 30 -34 82 -54 114 -19 32 -35 62&#xA;-35 67 0 4 -23 41 -51 83 -77 113 -249 281 -345 337 -22 12 -57 35 -78 50 -21&#xA;15 -44 28 -51 28 -6 0 -44 16 -84 36 -52 26 -99 40 -168 50 -52 8 -113 18&#xA;-136 24 -50 11 -212 20 -247 14z"></path>
      <path d="M57941 20353 c-53 -18 -64 -38 -57 -108 3 -33 6 -471 7 -974 1 -914&#xA;1 -914 29 -943 28 -28 28 -28 1704 -28 1675 0 1675 0 1701 -23 27 -22 27 -22&#xA;30 -5066 3 -5009 3 -5043 22 -5069 20 -27 20 -27 1062 -25 1158 2 1083 -3&#xA;1097 68 3 19 7 2297 8 5061 1 4793 2 5026 19 5039 24 17 609 21 2192 15 1321&#xA;-5 1290 -6 1315 39 6 13 11 353 12 995 3 976 3 976 -25 1003 -27 28 -27 28&#xA;-4554 28 -3523 0 -4535 -3 -4562 -12z"></path>
      <path d="M76594 20355 c-7 -5 -18 -23 -24 -38 -7 -19 -10 -1912 -10 -6080 0&#xA;-5735 1 -6054 18 -6087 l17 -35 310 0 c876 0 1603 7 1633 17 62 19 62 19 67&#xA;530 3 254 9 466 14 471 20 20 64 -8 118 -77 128 -162 480 -491 618 -578 22&#xA;-14 46 -32 53 -41 7 -8 27 -21 45 -28 18 -6 47 -24 66 -38 19 -14 61 -39 93&#xA;-56 174 -90 270 -136 328 -158 36 -14 88 -34 115 -45 127 -51 475 -146 630&#xA;-171 33 -5 105 -12 160 -15 55 -4 159 -14 230 -23 140 -17 601 -13 695 6 25 5&#xA;111 14 191 20 88 7 182 21 235 35 49 13 127 32 174 41 47 9 111 28 143 41 32&#xA;13 92 32 133 44 41 11 96 31 122 44 26 13 63 27 82 31 19 4 60 20 90 36 30 16&#xA;75 36 100 44 24 9 64 27 87 41 24 14 61 31 82 39 22 7 63 30 91 49 29 20 58&#xA;36 65 36 6 0 30 13 52 29 23 16 64 41 91 55 28 14 53 30 57 36 4 6 27 21 53&#xA;34 26 13 56 34 67 46 11 12 32 28 46 35 14 8 44 29 66 47 23 18 67 53 99 78&#xA;230 178 518 481 691 729 18 25 50 70 70 100 51 71 110 159 131 195 9 16 32 52&#xA;51 80 18 28 46 78 62 111 15 33 35 71 43 85 16 27 89 181 132 275 63 140 175&#xA;449 213 590 15 55 37 125 48 155 11 30 26 87 32 125 7 39 23 115 36 170 28&#xA;119 52 300 60 457 4 62 15 169 26 238 34 207 20 750 -25 1035 -8 50 -18 140&#xA;-21 200 -5 75 -14 132 -30 180 -13 39 -29 111 -36 160 -6 50 -25 131 -41 180&#xA;-16 50 -36 125 -43 168 -8 42 -24 98 -36 125 -11 26 -34 83 -50 127 -53 152&#xA;-101 270 -119 295 -9 14 -23 42 -30 63 -15 49 -108 232 -137 274 -13 17 -23&#xA;35 -23 41 0 5 -20 40 -45 78 -25 37 -45 74 -45 80 0 7 -10 25 -23 41 -13 15&#xA;-38 53 -56 83 -150 255 -584 735 -839 929 -62 47 -132 101 -155 119 -23 18&#xA;-62 45 -87 62 -25 16 -63 42 -85 59 -22 16 -49 33 -60 37 -11 4 -35 18 -53 31&#xA;-18 13 -52 33 -76 44 -24 10 -68 35 -96 54 -29 19 -56 35 -61 35 -5 0 -27 11&#xA;-50 25 -22 14 -72 37 -112 52 -39 14 -81 32 -93 39 -11 8 -52 25 -90 38 -38&#xA;13 -90 33 -115 45 -25 11 -77 27 -115 36 -38 8 -107 28 -154 45 -47 16 -94 30&#xA;-105 30 -11 0 -82 16 -158 35 -211 53 -531 85 -847 85 -136 0 -270 -4 -299&#xA;-10 -28 -5 -113 -15 -188 -21 -76 -6 -180 -22 -233 -36 -52 -13 -135 -33 -183&#xA;-43 -103 -23 -340 -101 -407 -135 -25 -12 -63 -28 -84 -35 -44 -14 -216 -102&#xA;-258 -131 -14 -11 -31 -19 -36 -19 -6 0 -33 -16 -62 -35 -28 -19 -71 -44 -93&#xA;-55 -41 -20 -111 -67 -172 -116 -17 -13 -44 -34 -61 -46 -128 -92 -387 -341&#xA;-491 -471 -94 -117 -135 -118 -133 -5 1 40 -2 1052 -5 2248 -4 1196 -6 2185&#xA;-6 2198 1 13 -10 33 -22 46 -24 24 -24 24 -1032 23 -663 -1 -1012 -5 -1021&#xA;-12z m4690 -5344 c44 -11 108 -22 141 -26 91 -9 217 -36 248 -52 15 -7 65 -23&#xA;110 -34 45 -11 101 -31 123 -44 23 -14 68 -34 100 -46 33 -12 73 -32 89 -44&#xA;17 -12 49 -29 72 -38 23 -9 62 -31 86 -49 24 -18 57 -41 73 -51 32 -19 102&#xA;-69 185 -133 52 -39 239 -225 311 -309 45 -52 135 -187 205 -308 15 -27 43&#xA;-71 61 -100 17 -28 32 -57 32 -64 0 -6 18 -46 40 -88 22 -42 45 -97 51 -123 7&#xA;-26 23 -69 36 -95 13 -27 32 -88 43 -135 10 -48 30 -130 45 -182 54 -190 82&#xA;-687 51 -898 -8 -53 -18 -144 -21 -202 -4 -58 -14 -130 -22 -160 -8 -30 -30&#xA;-112 -48 -181 -18 -69 -42 -143 -53 -165 -11 -21 -27 -65 -36 -97 -9 -32 -33&#xA;-88 -52 -124 -18 -35 -34 -70 -34 -77 0 -7 -13 -32 -28 -57 -15 -24 -36 -64&#xA;-46 -89 -10 -25 -26 -54 -36 -65 -10 -11 -25 -35 -35 -54 -10 -19 -35 -57 -56&#xA;-85 -72 -94 -124 -160 -145 -180 -11 -12 -47 -50 -79 -86 -60 -66 -211 -203&#xA;-301 -273 -109 -85 -167 -127 -175 -127 -5 0 -32 -15 -59 -34 -28 -19 -67 -40&#xA;-87 -47 -21 -6 -51 -21 -67 -32 -16 -12 -70 -35 -120 -53 -50 -18 -109 -39&#xA;-131 -47 -22 -8 -107 -29 -190 -47 -82 -18 -177 -38 -210 -46 -43 -10 -142&#xA;-14 -356 -14 -275 0 -304 2 -415 25 -218 45 -337 75 -388 99 -28 13 -69 29&#xA;-91 36 -81 25 -293 137 -431 227 -189 123 -442 358 -542 501 -78 112 -133 199&#xA;-153 242 -12 25 -32 60 -46 77 -13 18 -30 51 -38 74 -8 23 -28 65 -44 93 -15&#xA;28 -34 73 -40 100 -7 27 -22 69 -35 95 -12 25 -28 66 -34 91 -87 344 -113 545&#xA;-119 932 -4 205 -1 273 11 341 9 46 16 115 16 153 0 38 7 94 15 124 8 30 26&#xA;100 40 155 14 55 33 125 44 155 44 127 83 227 106 269 13 25 35 71 50 101 33&#xA;68 94 179 119 217 130 192 122 183 261 330 78 84 257 243 324 288 173 119 243&#xA;159 461 264 47 23 110 48 140 57 30 9 72 25 93 36 23 11 103 29 195 43 86 13&#xA;180 31 207 39 82 23 473 22 579 -3z"></path>
      <path d="M9300 19998 c-52 -5 -128 -18 -169 -29 -41 -12 -118 -27 -172 -35&#xA;-54 -7 -125 -25 -157 -38 -33 -14 -90 -33 -128 -42 -38 -9 -89 -27 -114 -39&#xA;-25 -13 -70 -30 -100 -39 -30 -9 -70 -27 -90 -39 -19 -13 -55 -31 -79 -41 -79&#xA;-31 -384 -219 -478 -295 -18 -14 -60 -46 -93 -71 -94 -69 -466 -398 -545 -481&#xA;-74 -78 -323 -362 -365 -416 -14 -17 -52 -65 -85 -105 -79 -97 -114 -141 -150&#xA;-193 -16 -23 -57 -75 -90 -115 -33 -40 -73 -90 -90 -111 -57 -71 -115 -144&#xA;-155 -194 -22 -27 -58 -75 -80 -105 -22 -30 -56 -75 -75 -100 -18 -25 -46 -63&#xA;-62 -85 -15 -22 -41 -56 -58 -76 -16 -20 -42 -56 -57 -80 -15 -24 -43 -64 -63&#xA;-89 -35 -45 -62 -82 -156 -215 -119 -170 -164 -235 -226 -331 -18 -27 -45 -67&#xA;-61 -89 -16 -22 -37 -54 -45 -71 -9 -17 -23 -37 -32 -44 -9 -8 -26 -32 -37&#xA;-54 -12 -23 -34 -57 -49 -76 -16 -19 -29 -39 -29 -44 0 -5 -17 -32 -39 -60&#xA;-21 -28 -46 -65 -54 -82 -9 -17 -23 -37 -32 -44 -9 -8 -27 -35 -40 -60 -13&#xA;-25 -31 -52 -40 -60 -9 -7 -25 -31 -36 -52 -11 -22 -34 -59 -52 -83 -40 -55&#xA;-85 -124 -118 -184 -64 -114 -101 -176 -123 -202 -14 -16 -28 -39 -32 -51 -4&#xA;-13 -19 -41 -35 -64 -15 -23 -40 -65 -54 -95 -14 -30 -34 -70 -45 -89 -39 -73&#xA;-98 -206 -105 -240 -4 -19 -20 -66 -37 -103 -16 -37 -35 -102 -43 -145 -7 -42&#xA;-23 -101 -35 -131 -11 -30 -25 -91 -31 -135 -5 -45 -16 -123 -25 -174 -19&#xA;-105 -15 -644 5 -736 6 -27 15 -92 20 -145 6 -63 18 -118 34 -157 13 -32 30&#xA;-90 36 -129 7 -38 23 -89 36 -112 13 -23 31 -66 41 -95 9 -29 27 -66 40 -83&#xA;12 -16 32 -55 44 -87 11 -31 28 -62 37 -70 9 -7 25 -33 36 -58 11 -25 35 -65&#xA;54 -89 18 -24 33 -49 33 -55 0 -6 15 -29 32 -51 18 -22 47 -60 63 -86 76 -119&#xA;97 -149 105 -149 5 0 17 -15 29 -32 26 -43 366 -378 383 -378 4 0 27 -17 52&#xA;-37 25 -21 75 -58 111 -83 36 -25 87 -60 112 -78 25 -19 62 -40 82 -47 20 -7&#xA;58 -27 86 -44 27 -17 54 -31 61 -31 7 0 43 -16 81 -36 37 -20 95 -45 128 -55&#xA;33 -9 101 -31 150 -47 209 -70 262 -84 398 -102 78 -11 180 -24 227 -31 96&#xA;-13 354 -7 465 10 39 7 122 18 185 26 124 15 326 69 430 115 36 16 78 32 94&#xA;36 34 8 217 99 261 130 17 11 45 27 64 34 18 7 51 28 73 47 22 18 44 33 49 33&#xA;19 0 199 169 298 279 97 109 127 145 226 277 22 29 60 78 85 110 51 64 104&#xA;135 156 209 19 28 53 75 75 105 65 90 132 190 159 235 14 23 37 56 53 74 15&#xA;18 27 36 27 41 0 4 16 27 36 51 19 23 44 59 55 78 11 20 40 63 64 96 25 33 58&#xA;80 74 105 16 25 40 58 53 74 13 16 32 44 43 61 11 18 42 63 68 101 131 190&#xA;168 244 231 351 16 26 36 59 45 72 9 13 30 45 46 71 57 90 125 189 134 195 5&#xA;3 23 29 40 58 17 28 54 84 82 122 27 39 61 90 75 115 14 25 47 79 74 120 27&#xA;41 63 101 79 132 17 31 35 59 41 63 6 3 20 25 31 48 12 23 36 65 53 92 69 105&#xA;96 151 115 191 11 23 35 63 55 89 20 25 36 52 36 58 0 7 13 28 29 47 15 19 36&#xA;50 45 68 10 19 32 53 49 77 18 24 50 73 72 109 22 37 55 87 73 111 18 25 39&#xA;60 47 78 7 18 28 56 47 84 18 28 51 81 73 117 22 36 58 95 80 130 22 36 58 94&#xA;80 130 22 36 59 96 83 132 23 37 42 72 42 79 0 6 13 29 29 51 16 21 37 60 47&#xA;84 9 25 26 58 37 73 20 29 63 134 97 237 98 299 114 406 115 755 0 319 -16&#xA;491 -55 590 -15 39 -33 98 -40 130 -7 33 -24 82 -37 110 -14 27 -34 73 -44&#xA;103 -10 29 -27 65 -38 81 -11 15 -30 53 -41 84 -12 31 -26 59 -31 63 -5 3 -21&#xA;28 -35 55 -31 62 -75 123 -214 297 -79 98 -142 162 -267 271 -166 143 -189&#xA;162 -239 191 -89 52 -141 84 -189 115 -27 18 -61 36 -75 40 -14 4 -46 20 -71&#xA;36 -25 16 -70 37 -100 48 -30 10 -70 28 -89 39 -19 11 -64 28 -100 37 -36 9&#xA;-87 25 -114 36 -42 18 -295 71 -516 109 -66 12 -298 11 -430 -2z"></path>
      <path d="M19889 19991 c-52 -10 -108 -22 -125 -29 -16 -6 -68 -21 -116 -32&#xA;-49 -11 -115 -31 -147 -44 -33 -13 -75 -27 -93 -31 -18 -4 -62 -22 -98 -40&#xA;-36 -18 -76 -36 -90 -39 -33 -10 -211 -100 -277 -140 -97 -59 -108 -66 -159&#xA;-104 -228 -166 -397 -329 -532 -515 -13 -18 -34 -43 -47 -57 -12 -14 -32 -44&#xA;-44 -67 -11 -23 -26 -45 -31 -48 -6 -4 -26 -37 -44 -73 -18 -37 -45 -89 -59&#xA;-117 -59 -113 -85 -174 -107 -245 -12 -41 -31 -92 -42 -113 -10 -21 -25 -74&#xA;-33 -117 -8 -43 -26 -130 -41 -192 -28 -111 -28 -119 -29 -423 0 -263 3 -321&#xA;18 -385 9 -41 28 -124 41 -185 13 -60 35 -135 49 -165 13 -30 32 -80 42 -110&#xA;10 -30 28 -68 41 -85 12 -16 32 -56 44 -87 12 -32 26 -61 32 -64 6 -4 24 -34&#xA;40 -68 16 -33 44 -84 61 -113 89 -144 140 -229 177 -293 17 -30 46 -76 63&#xA;-101 18 -26 41 -61 52 -79 11 -18 31 -52 45 -74 14 -23 40 -61 58 -85 17 -24&#xA;32 -49 32 -55 0 -6 13 -27 29 -46 15 -19 37 -53 49 -76 11 -22 28 -47 37 -54&#xA;9 -8 29 -39 45 -70 16 -31 36 -63 46 -71 9 -8 23 -27 31 -44 7 -16 28 -51 46&#xA;-76 17 -26 40 -59 50 -75 9 -16 27 -43 40 -61 12 -18 40 -61 62 -98 22 -36 54&#xA;-84 70 -107 17 -23 39 -56 50 -74 11 -18 34 -53 50 -78 17 -24 38 -57 48 -73&#xA;9 -15 27 -42 40 -60 12 -18 36 -53 52 -78 17 -26 41 -63 55 -84 14 -21 39 -60&#xA;57 -87 18 -27 45 -67 62 -89 16 -22 34 -52 40 -67 5 -14 23 -41 39 -59 16 -19&#xA;36 -47 45 -64 19 -38 79 -131 109 -169 13 -16 37 -53 53 -81 50 -86 68 -116&#xA;102 -161 18 -24 43 -65 57 -92 13 -26 32 -54 41 -62 9 -7 25 -30 35 -49 10&#xA;-20 28 -45 40 -56 12 -11 31 -37 42 -58 10 -21 34 -59 53 -85 19 -26 48 -65&#xA;65 -88 16 -23 30 -46 30 -51 0 -9 48 -80 125 -183 27 -36 67 -97 119 -179 15&#xA;-25 41 -61 57 -79 16 -18 29 -38 29 -45 0 -7 13 -28 29 -47 15 -19 35 -49 44&#xA;-66 9 -17 31 -49 49 -72 30 -38 72 -94 133 -182 61 -87 98 -139 138 -192 23&#xA;-31 57 -79 76 -105 139 -194 364 -403 526 -489 148 -78 264 -135 295 -145 19&#xA;-6 62 -23 95 -37 33 -13 86 -31 118 -38 31 -8 84 -25 116 -38 101 -43 550 -89&#xA;726 -75 252 20 364 31 405 38 100 19 320 82 380 109 36 16 79 32 95 36 29 7&#xA;163 67 235 106 19 11 59 31 88 46 29 14 75 40 102 57 27 18 79 50 115 72 136&#xA;82 369 288 492 437 164 197 297 371 310 405 4 10 24 45 45 77 21 33 38 64 38&#xA;69 0 5 13 31 28 56 16 25 35 64 42 86 6 22 24 63 40 90 15 28 37 82 50 120 12&#xA;39 29 82 36 97 7 14 23 70 34 123 12 53 30 116 40 140 10 23 23 89 29 146 6&#xA;57 16 136 21 174 30 223 -3 782 -54 903 -14 33 -31 93 -37 134 -6 40 -21 96&#xA;-34 125 -13 28 -31 77 -40 109 -9 33 -27 77 -40 99 -12 22 -28 58 -35 80 -7&#xA;22 -25 63 -40 90 -16 28 -36 70 -46 95 -10 25 -31 63 -46 84 -15 21 -28 44&#xA;-28 51 0 7 -17 38 -39 71 -48 74 -89 142 -119 197 -12 23 -34 58 -48 77 -13&#xA;19 -39 57 -57 84 -18 27 -49 75 -69 105 -34 51 -73 113 -153 241 -16 26 -43&#xA;67 -60 91 -16 24 -54 81 -85 127 -30 45 -72 106 -93 135 -20 28 -57 81 -82&#xA;117 -25 36 -63 90 -85 120 -22 30 -48 69 -59 85 -11 17 -36 53 -55 80 -57 78&#xA;-83 116 -112 165 -15 25 -40 60 -56 78 -15 18 -28 37 -28 42 0 6 -15 27 -33&#xA;47 -19 21 -49 60 -68 86 -19 27 -53 74 -76 105 -23 31 -50 68 -60 82 -10 14&#xA;-44 59 -76 100 -32 41 -74 98 -93 125 -19 28 -55 77 -79 110 -25 33 -61 83&#xA;-80 112 -19 28 -40 55 -45 58 -6 4 -22 23 -36 43 -54 80 -130 179 -229 300&#xA;-33 40 -69 85 -80 100 -100 134 -619 670 -761 788 -157 130 -225 179 -379 279&#xA;-25 17 -67 44 -93 61 -26 17 -69 41 -97 53 -27 12 -57 28 -66 37 -9 8 -44 25&#xA;-79 39 -35 14 -71 32 -80 40 -9 8 -41 23 -71 34 -30 10 -73 28 -95 39 -23 11&#xA;-79 32 -125 46 -46 14 -118 36 -159 50 -113 37 -292 77 -415 92 -157 20 -550&#xA;17 -676 -5z"></path>
      <path d="M90445 17004 c-22 -2 -107 -10 -190 -19 -82 -8 -195 -19 -251 -25&#xA;-55 -5 -117 -17 -138 -25 -21 -9 -101 -27 -177 -41 -77 -13 -156 -31 -176 -39&#xA;-20 -9 -73 -25 -117 -36 -44 -11 -107 -32 -141 -46 -33 -14 -91 -34 -130 -45&#xA;-38 -11 -83 -28 -100 -38 -16 -9 -48 -23 -70 -30 -22 -7 -73 -30 -113 -52 -40&#xA;-21 -79 -38 -86 -38 -6 0 -34 -14 -60 -30 -26 -17 -70 -39 -96 -49 -26 -10&#xA;-63 -30 -82 -45 -19 -14 -40 -26 -45 -26 -21 0 -237 -145 -379 -254 -42 -33&#xA;-89 -69 -105 -80 -79 -59 -120 -93 -197 -164 -127 -116 -261 -252 -312 -317&#xA;-25 -31 -72 -89 -105 -129 -108 -128 -140 -167 -165 -205 -14 -21 -47 -71 -75&#xA;-111 -27 -39 -64 -95 -82 -122 -17 -28 -38 -57 -46 -67 -8 -9 -25 -36 -37 -61&#xA;-13 -25 -33 -58 -45 -75 -13 -16 -34 -52 -47 -80 -14 -27 -34 -68 -45 -90 -76&#xA;-145 -168 -355 -182 -415 -6 -25 -24 -74 -40 -110 -39 -88 -107 -306 -127&#xA;-410 -9 -47 -25 -102 -36 -123 -13 -25 -26 -91 -38 -191 -10 -85 -25 -178 -33&#xA;-207 -29 -106 -49 -469 -45 -819 5 -357 14 -468 61 -750 9 -52 21 -131 27&#xA;-175 7 -44 22 -111 35 -150 13 -38 29 -106 35 -150 7 -44 24 -112 40 -150 15&#xA;-39 33 -97 40 -130 7 -33 25 -82 40 -110 15 -27 33 -72 39 -100 7 -27 25 -70&#xA;40 -95 16 -25 31 -58 35 -75 4 -16 22 -61 41 -100 18 -38 45 -95 59 -125 15&#xA;-30 33 -66 40 -80 8 -14 27 -50 41 -80 70 -143 88 -176 103 -193 9 -11 28 -38&#xA;42 -62 14 -23 43 -69 64 -101 37 -56 52 -75 136 -179 19 -24 58 -71 85 -105&#xA;205 -255 498 -541 705 -688 25 -18 65 -48 90 -67 52 -40 102 -74 183 -124 32&#xA;-20 81 -51 110 -69 28 -19 67 -40 86 -48 19 -8 49 -25 65 -37 17 -13 57 -34&#xA;88 -46 32 -13 62 -29 68 -36 6 -8 42 -24 78 -36 37 -12 83 -32 102 -45 19 -12&#xA;55 -28 80 -34 25 -6 64 -23 87 -36 23 -13 81 -35 130 -48 48 -13 113 -36 143&#xA;-50 30 -14 64 -26 74 -26 10 0 64 -16 120 -35 56 -19 151 -43 211 -54 61 -11&#xA;135 -29 165 -41 39 -15 92 -24 194 -31 78 -5 175 -13 216 -18 248 -31 324 -36&#xA;590 -35 213 0 309 5 380 17 52 9 149 21 215 27 238 21 311 32 388 56 42 14&#xA;111 32 153 40 87 16 311 85 388 119 28 12 76 28 106 35 30 7 73 23 95 35 22&#xA;13 67 31 100 40 33 10 83 30 110 45 28 15 64 31 81 34 18 4 54 21 80 38 27 17&#xA;65 36 84 43 32 11 74 37 172 102 18 12 55 35 82 50 26 15 66 43 88 61 22 17&#xA;44 32 48 32 5 0 29 17 54 38 25 20 75 60 112 87 104 77 239 200 354 320 57 61&#xA;116 121 130 135 14 15 45 50 70 80 25 29 60 70 78 91 37 42 65 80 116 154 18&#xA;28 44 59 56 70 36 32 62 92 51 114 -10 18 -78 72 -147 116 -17 11 -60 40 -96&#xA;65 -67 46 -81 56 -231 156 -49 33 -112 75 -141 94 -111 74 -156 103 -250 160&#xA;-23 14 -57 37 -76 51 -19 14 -49 31 -67 38 -17 7 -40 22 -50 33 -10 11 -41 31&#xA;-69 43 -28 13 -55 28 -58 34 -4 6 -35 25 -68 42 -33 17 -78 43 -100 60 -23 16&#xA;-46 29 -52 29 -6 0 -33 18 -60 40 -38 32 -56 40 -87 40 -43 0 -40 3 -127 -115&#xA;-78 -105 -273 -318 -342 -372 -51 -40 -148 -106 -292 -197 -31 -20 -74 -43&#xA;-97 -51 -22 -8 -60 -26 -84 -40 -24 -14 -51 -25 -59 -25 -8 0 -50 -18 -94 -40&#xA;-43 -21 -113 -46 -154 -55 -41 -8 -104 -27 -139 -41 -38 -15 -102 -29 -155&#xA;-35 -50 -5 -122 -17 -161 -27 -112 -27 -586 -24 -710 6 -49 11 -126 25 -171&#xA;31 -44 6 -102 19 -128 31 -27 11 -89 29 -139 40 -50 11 -120 33 -155 50 -35&#xA;16 -70 30 -77 30 -7 0 -46 17 -87 38 -40 21 -89 45 -108 52 -19 8 -56 29 -83&#xA;47 -27 18 -54 33 -60 33 -5 0 -26 12 -46 28 -19 15 -50 36 -67 47 -33 21 -126&#xA;90 -179 134 -140 116 -363 382 -427 511 -13 25 -32 59 -44 75 -35 52 -112 217&#xA;-129 280 -9 33 -25 75 -35 95 -20 39 -45 152 -55 245 -4 33 -18 95 -32 139&#xA;-32 99 -26 145 23 161 20 7 1089 10 3131 9 2219 -1 3110 2 3133 10 62 21 67&#xA;38 81 276 21 392 3 905 -41 1165 -11 61 -24 155 -30 210 -15 133 -35 242 -55&#xA;288 -8 21 -23 75 -31 120 -9 45 -29 116 -44 157 -16 41 -34 98 -41 125 -7 28&#xA;-22 70 -35 95 -12 25 -30 73 -39 105 -10 33 -28 78 -41 101 -13 22 -33 67 -44&#xA;98 -11 32 -28 72 -39 90 -10 17 -27 54 -36 81 -10 28 -27 62 -37 77 -10 14&#xA;-32 55 -49 90 -39 82 -100 191 -119 213 -8 10 -26 37 -40 60 -28 48 -104 157&#xA;-153 222 -78 102 -95 123 -166 203 -212 240 -414 429 -586 547 -22 15 -57 41&#xA;-77 58 -68 56 -294 205 -311 205 -6 0 -24 11 -41 24 -17 13 -59 37 -93 54 -34&#xA;18 -64 36 -67 41 -4 5 -31 19 -61 30 -30 11 -72 32 -93 46 -20 13 -62 33 -92&#xA;44 -30 11 -77 31 -104 45 -27 14 -56 26 -63 26 -8 0 -55 16 -106 36 -51 19&#xA;-122 42 -158 49 -37 8 -91 24 -120 35 -30 11 -105 30 -168 41 -63 11 -138 29&#xA;-165 39 -73 26 -203 42 -576 70 -107 8 -434 10 -525 4z m450 -1854 c171 -13&#xA;323 -36 390 -61 28 -10 79 -25 114 -34 36 -9 87 -28 115 -42 28 -14 73 -34&#xA;101 -43 27 -10 77 -34 109 -54 33 -20 64 -36 69 -36 6 0 28 -14 51 -31 41 -30&#xA;110 -76 172 -114 75 -47 222 -189 346 -335 50 -59 163 -241 199 -320 11 -25&#xA;33 -74 49 -110 16 -36 34 -85 40 -110 6 -25 24 -79 40 -121 16 -42 34 -114 40&#xA;-160 24 -186 24 -172 0 -194 -22 -20 -34 -20 -2088 -18 -1869 3 -2068 4 -2090&#xA;19 -27 17 -27 40 1 124 8 25 24 81 35 125 28 110 76 250 106 310 14 28 35 70&#xA;46 95 73 161 276 414 461 576 57 50 123 103 146 117 23 14 44 31 48 37 3 6 25&#xA;20 48 32 23 11 57 33 77 48 19 15 51 33 70 40 19 8 51 24 70 37 19 12 60 31&#xA;90 41 31 11 75 29 98 41 22 11 78 30 124 40 46 11 104 29 129 40 25 11 88 25&#xA;139 31 52 6 105 13 118 17 79 19 351 26 537 13z"></path>
      <path d="M98754 17000 c-23 -5 -122 -16 -220 -25 -130 -12 -195 -23 -239 -40&#xA;-34 -12 -107 -30 -164 -39 -57 -9 -132 -28 -167 -42 -35 -14 -93 -34 -127 -43&#xA;-34 -10 -80 -27 -102 -38 -22 -11 -65 -28 -95 -38 -30 -10 -80 -31 -110 -46&#xA;-30 -16 -75 -38 -100 -49 -25 -11 -81 -40 -125 -64 -44 -24 -105 -58 -135 -74&#xA;-106 -58 -247 -155 -349 -241 -188 -159 -372 -359 -487 -531 -9 -14 -29 -43&#xA;-45 -66 -15 -22 -39 -65 -54 -95 -14 -30 -34 -70 -44 -89 -45 -83 -92 -189&#xA;-107 -240 -9 -30 -26 -80 -39 -110 -13 -30 -29 -84 -35 -120 -6 -36 -23 -96&#xA;-36 -134 -35 -101 -49 -264 -49 -571 0 -316 14 -479 50 -567 13 -33 30 -88 36&#xA;-121 7 -34 24 -87 39 -117 15 -30 31 -71 35 -90 4 -19 24 -65 46 -101 21 -36&#xA;39 -70 39 -76 0 -6 18 -37 40 -69 22 -33 40 -64 40 -70 0 -6 7 -18 17 -25 9&#xA;-8 32 -39 51 -69 92 -143 360 -415 507 -514 22 -15 67 -47 100 -71 33 -25 73&#xA;-53 89 -63 16 -9 49 -32 75 -49 25 -18 62 -40 81 -49 19 -9 50 -27 68 -41 18&#xA;-14 61 -36 94 -49 34 -13 69 -31 78 -39 9 -8 48 -26 87 -39 39 -13 82 -31 95&#xA;-40 14 -9 58 -27 98 -41 41 -14 93 -34 116 -45 22 -11 66 -27 98 -35 31 -8 78&#xA;-26 104 -39 26 -13 74 -29 107 -36 33 -7 87 -24 120 -38 33 -14 94 -35 135&#xA;-48 41 -12 102 -32 135 -43 146 -49 257 -84 350 -111 55 -15 127 -38 160 -49&#xA;33 -12 98 -32 145 -45 47 -13 108 -33 135 -44 28 -11 84 -32 125 -45 168 -56&#xA;302 -110 415 -169 22 -11 65 -33 97 -49 31 -15 59 -33 63 -39 3 -5 23 -19 43&#xA;-29 76 -39 292 -274 292 -317 0 -8 12 -42 26 -77 79 -193 38 -476 -95 -662&#xA;-56 -77 -212 -208 -281 -235 -19 -7 -57 -26 -85 -41 -27 -14 -72 -32 -100 -38&#xA;-27 -7 -84 -25 -125 -41 -129 -49 -397 -76 -650 -66 -180 7 -419 37 -490 62&#xA;-25 9 -90 28 -145 43 -55 15 -113 34 -130 43 -16 9 -57 25 -90 36 -33 10 -82&#xA;33 -109 51 -28 17 -55 31 -61 31 -7 0 -40 18 -74 40 -34 22 -66 40 -70 40 -45&#xA;0 -377 301 -484 438 -23 30 -57 73 -75 95 -18 23 -45 62 -61 87 -66 103 -85&#xA;109 -171 53 -32 -21 -72 -47 -90 -58 -46 -28 -120 -75 -171 -109 -165 -111&#xA;-246 -164 -275 -182 -19 -11 -44 -30 -56 -41 -13 -11 -36 -28 -53 -37 -16 -9&#xA;-64 -41 -105 -71 -41 -31 -88 -63 -104 -73 -16 -9 -47 -31 -70 -49 -22 -18&#xA;-57 -41 -77 -52 -19 -11 -42 -27 -49 -36 -8 -9 -34 -28 -59 -41 -47 -25 -123&#xA;-75 -175 -116 -16 -13 -43 -31 -59 -41 -54 -33 -119 -92 -128 -115 -11 -28 11&#xA;-85 46 -122 13 -14 36 -46 52 -71 15 -26 41 -66 58 -90 27 -41 43 -60 148&#xA;-182 191 -220 539 -535 693 -627 52 -31 125 -78 167 -108 18 -12 59 -35 92&#xA;-52 33 -16 74 -38 90 -49 17 -12 46 -26 65 -32 19 -7 53 -24 75 -40 23 -15 61&#xA;-32 85 -39 25 -7 69 -24 100 -40 30 -15 93 -40 140 -54 46 -15 96 -34 110 -41&#xA;14 -7 52 -18 85 -25 33 -6 98 -24 145 -40 47 -16 119 -33 160 -39 41 -6 119&#xA;-22 173 -36 54 -13 183 -34 285 -45 103 -11 239 -28 302 -38 139 -21 629 -23&#xA;775 -3 134 18 233 30 400 46 96 9 169 22 202 34 29 11 101 29 160 40 59 10&#xA;128 28 153 38 25 11 79 28 120 38 41 10 95 28 120 41 25 12 73 30 105 39 33&#xA;10 83 30 110 45 28 15 68 33 90 40 22 7 55 23 72 37 18 13 50 30 70 37 21 8&#xA;62 30 92 50 29 20 58 36 65 36 6 0 27 13 46 29 19 15 49 35 66 44 17 9 49 31&#xA;72 49 22 18 71 55 109 83 114 84 298 266 403 399 25 31 62 77 83 102 20 25 37&#xA;49 37 53 0 5 14 26 31 47 17 22 40 59 51 84 11 25 28 54 39 66 10 11 30 49 44&#xA;84 14 35 31 73 39 85 8 12 22 49 32 81 9 32 29 86 45 119 16 34 33 94 39 135&#xA;6 41 22 110 36 153 62 200 66 959 5 1114 -11 27 -25 88 -31 134 -7 46 -25 113&#xA;-40 150 -15 36 -35 90 -43 120 -21 70 -169 362 -206 404 -10 11 -25 32 -33 46&#xA;-68 109 -312 354 -529 529 -53 43 -158 113 -219 146 -25 14 -59 35 -77 47 -44&#xA;31 -131 79 -178 97 -38 16 -117 52 -270 125 -38 19 -93 40 -121 48 -28 8 -68&#xA;24 -90 35 -21 11 -66 27 -99 37 -32 9 -80 27 -105 40 -25 12 -72 28 -105 35&#xA;-33 7 -98 27 -145 44 -47 18 -112 38 -145 45 -33 8 -73 20 -88 28 -15 7 -76&#xA;27 -135 42 -59 16 -129 38 -157 49 -27 12 -79 28 -114 37 -36 9 -81 25 -101&#xA;35 -21 10 -83 31 -140 45 -57 14 -119 34 -139 44 -20 10 -65 26 -101 36 -36 9&#xA;-85 27 -110 40 -25 12 -72 30 -105 40 -33 9 -78 27 -100 39 -22 12 -62 31 -90&#xA;41 -27 10 -57 23 -65 30 -8 7 -46 29 -85 49 -165 86 -313 219 -375 336 -7 13&#xA;-24 63 -37 110 -65 238 10 503 191 671 175 163 362 245 681 299 120 21 534 8&#xA;615 -19 36 -11 103 -28 150 -37 47 -9 114 -29 150 -44 36 -16 83 -33 105 -39&#xA;22 -6 54 -20 70 -32 17 -11 55 -31 85 -45 30 -14 64 -33 75 -43 11 -10 35 -26&#xA;53 -35 42 -21 200 -160 272 -239 30 -33 72 -77 93 -98 20 -20 37 -41 37 -46 0&#xA;-4 22 -32 49 -60 62 -68 97 -72 165 -15 52 43 129 99 236 173 25 16 65 45 89&#xA;62 24 18 61 43 82 57 100 66 137 91 169 115 19 14 67 48 105 75 39 27 90 65&#xA;115 85 60 47 115 88 175 130 28 19 75 53 105 75 30 22 78 55 107 75 28 19 55&#xA;40 58 45 4 6 24 22 46 36 129 81 147 130 79 209 -22 26 -48 61 -57 78 -26 52&#xA;-194 248 -315 369 -134 135 -396 350 -475 391 -15 8 -52 31 -82 51 -29 20 -58&#xA;36 -64 36 -5 0 -25 12 -44 26 -18 14 -59 37 -90 50 -31 14 -69 34 -83 43 -14&#xA;10 -43 24 -65 31 -22 7 -62 25 -90 40 -27 15 -77 35 -110 45 -32 9 -80 27&#xA;-106 40 -25 13 -83 33 -129 45 -46 12 -96 28 -112 36 -15 8 -73 23 -128 34&#xA;-55 12 -112 25 -126 30 -47 18 -248 49 -389 60 -77 6 -169 15 -205 20 -78 12&#xA;-668 11 -726 0z"></path>
      <path d="M70791 16945 c-52 -8 -108 -19 -125 -24 -17 -6 -76 -18 -131 -27 -55&#xA;-9 -131 -28 -170 -43 -38 -16 -92 -33 -119 -40 -27 -6 -71 -24 -100 -38 -28&#xA;-14 -74 -34 -104 -44 -29 -10 -65 -27 -80 -37 -15 -11 -48 -29 -74 -40 -26&#xA;-11 -62 -32 -80 -45 -18 -14 -51 -34 -73 -46 -51 -28 -182 -123 -275 -199&#xA;-109 -91 -360 -355 -424 -447 -17 -24 -55 -78 -83 -120 -29 -41 -59 -91 -68&#xA;-110 -21 -52 -88 -153 -104 -160 -8 -3 -18 -2 -23 3 -6 6 -10 272 -11 630 -2&#xA;555 -4 623 -18 637 -14 15 -112 16 -1019 15 -625 0 -1009 -4 -1021 -10 -10 -6&#xA;-20 -18 -23 -27 -9 -33 -11 -1326 -8 -4969 2 -3570 2 -3642 21 -3665 19 -24&#xA;19 -24 1028 -21 1115 4 1044 -1 1062 69 6 24 10 861 11 2268 1 1352 5 2246 10&#xA;2270 6 22 12 87 16 145 3 66 21 172 46 285 39 176 48 210 103 365 40 115 179&#xA;385 222 432 11 13 26 34 33 46 22 43 197 233 322 349 29 27 139 110 238 180&#xA;46 32 211 112 266 128 29 8 68 24 86 35 31 18 224 68 403 105 151 31 547 32&#xA;817 2 124 -14 235 -30 247 -36 32 -18 89 -13 110 8 32 32 30 -54 47 1491 6&#xA;439 4 571 -5 589 -16 29 -59 47 -136 56 -33 3 -94 16 -135 27 -100 27 -532 35&#xA;-679 13z"></path>
      <path d="M73505 16810 c-589 -5 -589 -5 -602 -30 -9 -19 -12 -950 -13 -4321&#xA;-1 -4297 -1 -4297 22 -4324 23 -27 23 -27 1037 -19 1009 7 1014 7 1038 28 13&#xA;12 28 39 33 61 6 24 9 1778 10 4307 0 4267 0 4267 -27 4285 -30 20 -346 23&#xA;-1498 13z"></path>
      <path d="M1051 12504 c-18 -13 -21 -25 -21 -90 0 -77 -18 -223 -47 -394 -14&#xA;-82 -17 -208 -20 -905 -4 -957 12 -1610 45 -1755 5 -25 15 -92 22 -150 19&#xA;-167 39 -309 55 -390 8 -41 26 -149 40 -240 14 -91 34 -205 45 -255 12 -49 30&#xA;-138 41 -197 10 -59 30 -142 44 -185 13 -43 31 -113 40 -155 8 -42 24 -97 35&#xA;-121 11 -24 27 -77 35 -118 8 -41 26 -99 40 -129 13 -31 33 -95 45 -143 11&#xA;-48 28 -105 39 -125 10 -20 28 -73 40 -117 12 -44 31 -93 41 -110 10 -16 26&#xA;-59 35 -95 9 -36 27 -83 40 -105 12 -22 32 -69 44 -103 11 -35 30 -79 41 -97&#xA;11 -18 29 -58 40 -89 10 -31 29 -70 41 -87 12 -17 28 -51 35 -77 8 -26 26 -64&#xA;39 -84 14 -21 34 -62 46 -92 11 -30 26 -59 34 -66 7 -6 26 -43 40 -81 15 -38&#xA;31 -72 37 -75 5 -3 25 -38 44 -78 41 -84 101 -190 130 -232 11 -16 26 -43 33&#xA;-61 7 -18 20 -38 28 -45 8 -6 30 -42 49 -79 18 -37 38 -70 44 -74 6 -3 19 -24&#xA;31 -46 11 -22 35 -60 54 -85 19 -25 35 -51 35 -57 0 -7 17 -33 38 -59 20 -25&#xA;45 -59 55 -74 9 -16 27 -43 40 -60 12 -18 30 -45 40 -60 9 -16 36 -55 60 -86&#xA;23 -31 70 -94 104 -140 81 -108 135 -176 303 -378 241 -291 452 -515 720 -768&#xA;25 -23 59 -55 75 -71 54 -50 231 -205 295 -256 34 -27 100 -81 146 -120 124&#xA;-104 185 -152 224 -180 112 -78 140 -98 185 -135 59 -48 170 -125 231 -160 24&#xA;-14 54 -35 66 -47 13 -11 39 -29 58 -38 19 -10 51 -31 70 -46 19 -16 40 -29&#xA;46 -29 6 0 29 -13 51 -29 23 -16 63 -41 90 -55 27 -13 55 -32 63 -41 7 -9 32&#xA;-26 54 -37 23 -12 55 -31 71 -43 17 -13 48 -30 70 -39 22 -10 49 -25 60 -36&#xA;11 -10 42 -28 70 -40 27 -12 64 -32 81 -45 17 -13 54 -33 82 -43 28 -11 63&#xA;-29 77 -40 14 -12 50 -28 78 -38 29 -9 66 -27 82 -39 17 -12 52 -30 78 -39 27&#xA;-10 78 -33 113 -52 36 -19 72 -34 81 -34 9 0 39 -13 67 -29 28 -16 71 -34 96&#xA;-41 25 -6 64 -22 87 -35 23 -13 66 -31 95 -40 29 -10 78 -30 109 -46 31 -15&#xA;79 -34 105 -40 27 -7 74 -24 104 -39 30 -15 86 -35 124 -44 38 -9 85 -25 106&#xA;-36 20 -10 74 -28 120 -40 46 -12 109 -32 140 -45 30 -12 85 -28 123 -34 37&#xA;-6 102 -24 145 -40 42 -16 115 -34 162 -40 88 -12 168 -29 257 -55 29 -8 112&#xA;-22 185 -31 73 -9 171 -25 217 -36 47 -11 130 -24 185 -30 56 -5 162 -16 236&#xA;-24 74 -8 185 -19 245 -25 61 -6 139 -16 175 -23 74 -12 4419 -27 4458 -15 31&#xA;11 29 52 -4 75 -54 38 -813 708 -864 764 -14 15 -74 71 -135 125 -60 54 -142&#xA;127 -180 163 -39 37 -97 89 -129 116 -33 28 -74 64 -91 80 -18 17 -45 41 -61&#xA;55 -16 14 -63 57 -104 94 -41 38 -97 87 -125 108 -60 48 -312 272 -340 303&#xA;-11 12 -69 66 -130 120 -60 54 -126 113 -145 131 -68 64 -99 90 -205 179 -59&#xA;50 -248 214 -419 365 -171 151 -331 291 -356 311 -25 20 -129 110 -232 200&#xA;-103 90 -255 223 -339 294 -146 125 -176 152 -264 234 -67 62 -208 186 -236&#xA;207 -15 10 -83 69 -152 129 -69 61 -169 146 -222 190 -135 112 -287 241 -434&#xA;370 -239 208 -289 250 -356 305 -37 30 -107 89 -156 130 -48 41 -106 91 -130&#xA;110 -23 19 -81 69 -129 110 -48 41 -135 116 -194 165 -59 50 -147 124 -196&#xA;165 -48 41 -116 98 -150 125 -35 28 -100 82 -146 120 -45 39 -126 106 -179&#xA;150 -53 44 -118 98 -145 120 -26 22 -94 78 -150 125 -56 47 -123 103 -149 125&#xA;-26 22 -64 54 -84 70 -19 17 -68 55 -108 85 -39 30 -91 71 -114 90 -23 19 -63&#xA;53 -90 75 -26 22 -87 74 -134 115 -48 41 -107 91 -131 111 -25 21 -91 75 -147&#xA;120 -56 46 -127 104 -158 129 -84 66 -163 132 -300 250 -211 181 -325 274&#xA;-485 395 -49 37 -111 88 -186 153 -17 15 -64 52 -104 82 -94 72 -127 100 -381&#xA;325 -118 105 -261 228 -318 275 -56 47 -203 173 -326 280 -122 107 -287 251&#xA;-366 319 -79 68 -184 160 -234 205 -138 125 -1039 1027 -1150 1151 -96 108&#xA;-125 139 -195 214 -19 21 -53 60 -75 86 -22 27 -51 60 -65 74 -110 115 -388&#xA;438 -438 510 -43 62 -70 76 -101 55z"></path>
      <path d="M28628 12453 c-24 -31 -48 -65 -53 -75 -6 -10 -58 -69 -116 -130&#xA;-151 -162 -299 -325 -419 -463 -57 -66 -161 -178 -230 -249 -69 -71 -143 -147&#xA;-165 -170 -22 -23 -107 -113 -190 -200 -173 -184 -228 -239 -356 -356 -51 -47&#xA;-108 -98 -126 -115 -17 -16 -71 -66 -120 -110 -48 -44 -130 -120 -183 -170&#xA;-52 -49 -118 -108 -145 -130 -28 -22 -108 -92 -180 -155 -252 -224 -494 -436&#xA;-595 -520 -56 -47 -139 -116 -184 -155 -46 -38 -132 -110 -191 -160 -59 -49&#xA;-147 -124 -196 -165 -48 -41 -133 -113 -189 -160 -56 -47 -141 -119 -189 -160&#xA;-49 -41 -110 -93 -136 -115 -27 -22 -88 -74 -136 -115 -48 -41 -117 -100 -155&#xA;-130 -37 -30 -125 -104 -195 -165 -70 -60 -173 -148 -229 -195 -124 -103 -249&#xA;-209 -420 -355 -70 -60 -174 -148 -231 -195 -56 -47 -144 -121 -195 -165 -51&#xA;-44 -112 -96 -136 -116 -23 -20 -84 -72 -135 -115 -50 -44 -116 -99 -146 -124&#xA;-156 -127 -262 -216 -385 -325 -222 -197 -401 -350 -576 -492 -32 -26 -118&#xA;-99 -190 -162 -72 -62 -151 -130 -174 -150 -24 -20 -101 -86 -170 -146 -70&#xA;-61 -140 -121 -156 -133 -16 -12 -64 -53 -105 -91 -119 -107 -342 -301 -411&#xA;-356 -34 -27 -77 -62 -94 -77 -62 -54 -135 -114 -191 -158 -77 -60 -105 -84&#xA;-271 -231 -77 -68 -164 -144 -193 -169 -29 -25 -83 -73 -119 -108 -37 -35 -78&#xA;-71 -92 -80 -31 -21 -122 -97 -215 -182 -40 -36 -95 -85 -124 -110 -29 -25&#xA;-68 -58 -87 -75 -18 -16 -55 -49 -81 -72 -26 -22 -68 -59 -93 -80 -25 -22 -88&#xA;-74 -140 -115 -52 -41 -115 -95 -140 -119 -25 -24 -90 -84 -145 -132 -55 -49&#xA;-114 -103 -131 -121 -38 -37 -97 -89 -374 -325 -30 -25 -70 -62 -90 -81 -20&#xA;-19 -60 -55 -89 -80 -29 -25 -83 -73 -119 -108 -37 -35 -98 -89 -137 -120&#xA;-214 -174 -350 -294 -508 -447 -40 -38 -118 -111 -174 -161 -56 -51 -121 -111&#xA;-145 -135 -24 -23 -83 -76 -133 -118 -122 -102 -275 -238 -301 -266 -12 -13&#xA;-68 -65 -125 -116 -57 -50 -122 -109 -144 -130 -22 -20 -54 -50 -70 -66 -17&#xA;-15 -65 -57 -108 -92 -75 -62 -90 -88 -64 -109 18 -15 4087 -17 4377 -2 227&#xA;11 470 34 600 55 47 8 130 17 185 20 55 4 156 20 225 36 69 15 183 38 254 49&#xA;71 11 132 22 136 25 10 6 135 33 230 50 41 7 122 26 180 43 58 17 125 34 150&#xA;37 24 4 71 18 105 30 33 13 96 31 140 40 44 10 105 29 135 43 30 14 87 33 127&#xA;43 39 10 93 29 120 42 26 14 64 28 83 32 19 4 60 19 90 34 30 16 80 36 110 46&#xA;30 10 83 33 118 52 35 18 71 33 79 33 8 0 45 15 82 34 36 19 116 58 176 86 61&#xA;28 121 58 135 66 14 8 45 24 70 35 25 11 61 28 80 39 19 10 67 35 105 55 138&#xA;72 258 140 350 200 28 18 66 41 85 50 19 10 46 26 60 37 14 10 63 43 110 73&#xA;47 29 99 65 115 78 17 13 48 34 71 45 22 11 46 28 54 37 8 9 30 25 50 35 20&#xA;10 55 34 77 52 22 18 54 41 69 51 45 27 117 79 157 112 20 17 58 47 84 67 329&#xA;256 531 437 912 818 262 262 473 493 561 614 19 27 49 66 65 86 102 129 158&#xA;202 245 320 22 30 56 75 75 100 20 25 48 65 63 89 15 24 40 60 55 80 16 20 36&#xA;50 44 66 8 17 26 41 39 55 12 14 30 41 38 61 8 20 26 50 39 65 13 16 32 45 42&#xA;64 9 19 24 42 31 51 8 9 29 45 48 80 45 88 114 210 127 226 6 7 25 39 41 70&#xA;16 32 48 93 71 136 107 198 237 469 237 492 0 8 16 44 35 81 19 37 41 88 49&#xA;114 8 26 24 66 36 89 11 23 34 79 49 124 15 45 37 105 49 132 11 28 30 79 43&#xA;115 55 165 96 277 106 296 7 11 23 66 37 121 13 55 32 117 41 138 8 21 25 75&#xA;36 119 11 45 28 106 39 137 10 30 26 98 35 149 9 51 25 119 35 149 17 52 40&#xA;162 54 271 4 25 15 86 25 135 35 165 50 259 56 350 4 50 18 153 31 230 34 204&#xA;43 349 54 845 12 575 12 1887 0 2055 -6 72 -10 218 -11 325 0 118 -5 200 -11&#xA;208 -21 25 -48 12 -90 -45z"></path>
    </g>
    <g fill="#ffffff">
      <path d="M40693 20293 c-12 -21 -35 -78 -52 -128 -52 -156 -87 -248 -113 -300&#xA;-14 -27 -31 -72 -37 -100 -7 -27 -25 -72 -41 -100 -15 -27 -33 -68 -40 -90 -7&#xA;-22 -25 -65 -41 -96 -15 -30 -35 -82 -44 -115 -9 -32 -23 -69 -31 -81 -8 -12&#xA;-29 -69 -48 -125 -19 -57 -43 -125 -54 -153 -19 -49 -27 -71 -99 -280 -18 -54&#xA;-38 -104 -44 -111 -5 -6 -25 -56 -43 -110 -77 -222 -96 -275 -115 -311 -10&#xA;-21 -27 -65 -36 -98 -10 -33 -30 -85 -45 -115 -16 -31 -33 -76 -40 -100 -7&#xA;-24 -24 -69 -39 -100 -15 -30 -34 -77 -41 -105 -7 -27 -24 -72 -38 -99 -13&#xA;-27 -31 -72 -39 -100 -8 -28 -30 -82 -48 -121 -18 -38 -36 -86 -40 -105 -4&#xA;-19 -18 -58 -30 -85 -12 -28 -32 -82 -45 -120 -13 -39 -29 -79 -37 -91 -7 -11&#xA;-28 -65 -47 -120 -57 -167 -104 -292 -120 -316 -8 -13 -24 -59 -36 -103 -12&#xA;-44 -31 -98 -42 -119 -11 -22 -27 -62 -35 -90 -8 -28 -28 -76 -44 -107 -15&#xA;-31 -33 -79 -40 -105 -7 -27 -20 -65 -30 -85 -9 -19 -30 -73 -45 -120 -14 -46&#xA;-37 -102 -49 -124 -12 -22 -28 -62 -34 -89 -7 -26 -25 -74 -40 -105 -16 -31&#xA;-36 -79 -44 -107 -8 -28 -24 -68 -35 -90 -10 -21 -29 -70 -42 -109 -12 -38&#xA;-31 -84 -41 -100 -9 -17 -26 -62 -37 -100 -11 -39 -31 -93 -45 -120 -13 -28&#xA;-32 -77 -42 -110 -9 -32 -27 -80 -40 -105 -12 -25 -30 -72 -40 -105 -9 -32&#xA;-27 -80 -39 -105 -13 -25 -29 -67 -36 -95 -7 -27 -23 -70 -35 -95 -12 -25 -32&#xA;-79 -44 -120 -13 -41 -31 -88 -41 -105 -10 -16 -28 -64 -40 -105 -12 -41 -32&#xA;-95 -45 -120 -12 -25 -30 -72 -40 -105 -9 -33 -26 -77 -36 -98 -11 -21 -29&#xA;-68 -41 -105 -11 -37 -31 -85 -43 -107 -13 -22 -30 -64 -39 -93 -8 -30 -24&#xA;-68 -35 -85 -10 -18 -29 -66 -41 -107 -12 -41 -32 -95 -45 -120 -12 -25 -30&#xA;-69 -40 -99 -10 -30 -26 -68 -36 -85 -9 -17 -27 -67 -39 -111 -12 -44 -33&#xA;-100 -45 -125 -13 -25 -28 -65 -35 -90 -7 -25 -23 -67 -37 -94 -14 -28 -34&#xA;-82 -45 -121 -11 -38 -26 -80 -33 -91 -8 -12 -24 -53 -36 -90 -12 -38 -32 -89&#xA;-44 -114 -13 -25 -33 -79 -45 -120 -12 -41 -31 -92 -42 -113 -10 -21 -28 -67&#xA;-39 -103 -11 -35 -28 -79 -39 -97 -10 -17 -28 -64 -38 -103 -11 -38 -29 -88&#xA;-40 -110 -11 -22 -28 -66 -37 -99 -10 -33 -30 -85 -45 -115 -15 -30 -33 -77&#xA;-40 -105 -7 -27 -23 -70 -35 -95 -13 -25 -33 -79 -45 -120 -12 -41 -31 -89&#xA;-42 -107 -10 -18 -32 -69 -48 -115 -49 -145 -99 -276 -115 -308 -15 -29 -37&#xA;-89 -104 -285 -17 -49 -40 -106 -51 -126 -11 -20 -29 -67 -41 -105 -12 -38&#xA;-31 -89 -44 -114 -12 -25 -30 -72 -40 -105 -9 -33 -25 -76 -36 -95 -10 -19&#xA;-32 -74 -49 -122 -71 -207 -90 -259 -109 -296 -11 -22 -29 -71 -39 -108 -11&#xA;-38 -31 -96 -44 -129 -14 -33 -33 -85 -43 -115 -10 -30 -26 -71 -35 -90 -10&#xA;-19 -27 -71 -39 -115 -12 -44 -35 -101 -52 -126 -25 -39 -29 -56 -29 -112 0&#xA;-66 0 -66 33 -74 17 -5 165 -5 327 -1 162 4 643 8 1068 8 752 1 773 1 792 20&#xA;29 29 77 130 99 207 10 38 30 91 44 119 14 27 33 76 42 108 9 32 28 82 41 111&#xA;12 29 30 82 39 116 9 34 27 83 39 108 13 25 29 70 35 99 6 29 24 78 40 110 15&#xA;31 34 82 41 112 7 30 25 80 41 111 15 30 35 84 44 119 9 35 25 80 35 99 10 20&#xA;26 65 35 101 10 36 29 88 43 115 14 28 33 82 43 122 10 40 27 89 38 111 11 21&#xA;27 67 36 103 9 35 27 91 40 124 25 62 63 171 110 310 15 44 38 105 51 135 13&#xA;30 36 95 49 144 14 49 35 102 46 117 20 29 89 56 110 44 5 -4 1086 -9 2402&#xA;-11 l2392 -5 31 -32 c22 -24 36 -54 49 -108 10 -41 29 -98 43 -127 13 -29 30&#xA;-80 38 -113 8 -33 25 -81 38 -108 14 -26 32 -78 40 -115 9 -36 27 -88 40 -114&#xA;13 -26 34 -81 46 -122 12 -41 30 -91 40 -111 10 -19 26 -64 35 -100 9 -35 25&#xA;-79 36 -98 11 -18 29 -68 40 -110 12 -42 31 -94 44 -116 13 -23 31 -69 40&#xA;-105 9 -35 29 -89 44 -119 16 -31 33 -78 40 -105 7 -27 25 -74 40 -105 16 -31&#xA;35 -81 41 -111 7 -30 24 -77 37 -103 23 -46 41 -96 113 -304 17 -49 39 -104&#xA;49 -123 11 -19 27 -62 36 -95 8 -33 27 -82 40 -110 14 -27 32 -76 40 -107 25&#xA;-92 0 -88 532 -91 252 -1 745 0 1095 3 581 5 639 7 654 22 24 24 22 70 -5 103&#xA;-12 16 -29 53 -37 84 -9 31 -25 73 -36 95 -11 21 -31 73 -44 115 -14 42 -31&#xA;85 -39 96 -7 12 -23 57 -35 100 -12 44 -30 96 -40 115 -10 19 -25 62 -35 95&#xA;-9 33 -30 92 -45 130 -16 39 -36 97 -45 129 -9 32 -23 69 -31 81 -8 12 -25 53&#xA;-38 91 -13 38 -32 87 -44 109 -11 22 -25 60 -32 85 -7 25 -27 77 -45 115 -18&#xA;39 -40 97 -50 130 -9 32 -27 80 -39 105 -13 25 -31 70 -41 100 -10 30 -26 69&#xA;-35 85 -10 17 -26 57 -35 90 -10 33 -29 83 -43 110 -24 48 -47 110 -107 290&#xA;-15 44 -40 109 -55 145 -15 36 -33 90 -40 120 -7 30 -23 75 -35 100 -12 25&#xA;-32 77 -45 115 -13 39 -33 90 -45 115 -12 25 -30 74 -39 110 -10 36 -24 74&#xA;-31 86 -7 11 -23 54 -35 95 -12 41 -33 94 -45 119 -13 25 -31 73 -40 105 -10&#xA;33 -29 82 -42 109 -14 27 -32 72 -40 100 -8 28 -25 71 -38 96 -12 25 -32 76&#xA;-45 114 -13 39 -31 84 -41 100 -9 17 -27 65 -39 106 -12 41 -32 95 -45 120&#xA;-12 25 -30 72 -40 105 -9 32 -27 80 -40 106 -13 26 -29 68 -36 95 -7 27 -22&#xA;69 -34 94 -13 25 -32 80 -44 123 -12 43 -31 97 -42 119 -12 23 -28 64 -36 92&#xA;-8 28 -26 71 -38 96 -13 25 -31 73 -40 105 -10 33 -28 78 -40 100 -13 22 -31&#xA;67 -40 100 -10 33 -28 81 -41 106 -12 25 -33 77 -45 115 -12 38 -30 83 -39 99&#xA;-10 17 -26 59 -35 94 -9 36 -27 85 -40 110 -12 25 -33 80 -45 121 -12 41 -30&#xA;89 -40 105 -10 17 -25 55 -35 85 -10 30 -29 77 -43 105 -13 27 -33 80 -44 118&#xA;-10 38 -28 87 -39 110 -12 22 -28 63 -36 91 -8 28 -25 71 -38 96 -12 25 -32&#xA;75 -43 112 -12 36 -32 88 -45 115 -13 26 -32 73 -42 103 -10 30 -28 75 -40&#xA;100 -13 25 -30 68 -38 96 -8 28 -25 70 -37 94 -12 24 -31 74 -41 110 -10 37&#xA;-29 89 -43 116 -13 27 -32 78 -41 113 -9 36 -25 81 -35 101 -10 19 -26 62 -35&#xA;95 -10 33 -28 80 -40 105 -12 25 -30 72 -40 105 -9 32 -27 80 -39 105 -13 25&#xA;-33 76 -45 114 -12 38 -33 90 -45 115 -13 25 -29 69 -36 96 -7 28 -23 68 -36&#xA;90 -12 22 -30 67 -39 100 -10 33 -28 78 -41 100 -13 22 -33 72 -45 110 -11 39&#xA;-29 84 -39 100 -10 17 -28 64 -40 105 -12 41 -33 93 -45 115 -13 22 -29 63&#xA;-36 90 -7 28 -24 75 -39 105 -15 30 -35 82 -45 115 -9 32 -27 80 -40 106 -13&#xA;26 -29 68 -36 95 -7 27 -22 69 -35 94 -12 25 -30 73 -39 105 -10 33 -28 80&#xA;-40 105 -12 25 -30 72 -40 105 -15 54 -32 98 -105 275 -13 30 -36 93 -52 140&#xA;-15 47 -37 101 -47 120 -11 19 -27 62 -36 95 -10 33 -28 81 -41 107 -13 25&#xA;-32 77 -43 115 -10 38 -30 91 -43 118 -14 28 -30 71 -36 96 -7 26 -28 80 -47&#xA;120 -19 40 -35 83 -35 94 0 11 -13 48 -30 83 -16 34 -39 95 -51 135 -12 39&#xA;-31 92 -44 117 -12 25 -30 71 -39 102 -9 32 -25 72 -35 90 -11 18 -25 53 -31&#xA;78 -7 25 -17 51 -22 58 -8 9 -246 12 -1127 12 l-1117 0 -21 -37z m1145 -2715&#xA;c5 -7 15 -33 22 -58 15 -60 75 -214 104 -270 14 -25 34 -83 45 -129 12 -46 29&#xA;-98 40 -115 10 -17 26 -58 36 -91 9 -32 27 -80 40 -106 13 -26 29 -68 36 -95&#xA;7 -27 26 -78 44 -114 18 -36 37 -87 44 -114 7 -27 23 -71 38 -99 14 -28 34&#xA;-82 45 -120 10 -38 28 -86 38 -108 11 -21 27 -69 36 -106 8 -38 26 -88 40&#xA;-112 13 -24 31 -71 40 -104 8 -33 26 -81 39 -107 13 -26 31 -74 40 -109 9 -34&#xA;29 -88 44 -119 16 -31 32 -73 36 -92 4 -19 18 -57 32 -85 14 -27 38 -90 53&#xA;-140 15 -49 37 -112 48 -140 12 -27 30 -77 41 -110 60 -182 84 -246 110 -300&#xA;17 -33 42 -96 56 -140 56 -170 86 -250 104 -279 11 -17 27 -60 36 -95 9 -36&#xA;27 -85 40 -111 13 -26 31 -75 40 -111 9 -35 26 -79 37 -96 11 -18 32 -70 48&#xA;-115 15 -46 37 -105 48 -133 26 -64 77 -217 106 -320 12 -44 33 -99 45 -123&#xA;29 -56 25 -102 -9 -119 -42 -21 -3308 -19 -3338 3 -25 18 -29 59 -7 88 8 11&#xA;26 55 40 99 14 43 32 89 40 101 8 11 24 57 36 101 12 44 32 101 44 126 13 25&#xA;31 74 40 109 9 35 25 80 35 101 11 20 28 68 39 106 10 38 28 87 39 109 11 21&#xA;30 73 42 114 12 41 33 95 45 120 13 25 30 68 38 96 8 28 24 69 35 91 12 22 33&#xA;82 47 133 14 51 34 109 44 129 10 20 24 63 31 96 6 33 23 79 36 102 13 23 31&#xA;70 40 105 9 35 27 84 40 110 13 25 32 77 43 115 10 38 30 92 45 120 14 28 30&#xA;73 36 100 6 26 26 80 44 118 18 39 39 92 45 119 7 27 22 69 35 95 13 25 31 73&#xA;41 106 9 32 27 80 39 105 13 25 31 73 40 108 10 35 26 78 36 95 11 18 27 61&#xA;36 97 9 36 27 92 41 125 14 33 34 91 45 129 10 37 27 85 38 106 10 20 24 59&#xA;31 86 6 27 26 79 44 115 18 36 40 93 50 125 9 32 28 79 41 105 13 26 28 69 34&#xA;96 6 26 22 69 35 95 24 45 91 238 115 328 14 53 26 70 50 70 10 0 22 -6 28&#xA;-12z"></path>
      <path d="M54557 20308 c-3 -13 -6 -212 -7 -443 -2 -468 -10 -3782 -9 -3942 1&#xA;-85 -2 -104 -15 -109 -23 -9 -82 32 -115 79 -41 60 -114 132 -291 286 -216&#xA;188 -380 300 -576 394 -39 19 -74 39 -78 45 -3 6 -30 18 -59 27 -28 10 -74 30&#xA;-102 45 -27 16 -74 35 -103 44 -30 8 -68 24 -85 35 -18 11 -59 27 -92 36 -33&#xA;10 -89 30 -125 45 -36 16 -98 33 -138 39 -39 6 -102 22 -138 36 -238 90 -1401&#xA;87 -1640 -4 -27 -11 -92 -27 -144 -36 -93 -17 -267 -67 -365 -107 -27 -11 -79&#xA;-30 -115 -43 -36 -12 -87 -34 -115 -48 -85 -45 -262 -127 -273 -127 -6 0 -23&#xA;-11 -39 -24 -15 -13 -49 -33 -75 -44 -26 -11 -62 -32 -80 -45 -18 -13 -49 -30&#xA;-68 -37 -19 -8 -53 -27 -75 -42 -22 -16 -56 -40 -75 -53 -93 -64 -139 -98&#xA;-185 -135 -27 -22 -72 -57 -100 -79 -141 -108 -454 -436 -580 -605 -27 -37&#xA;-64 -84 -81 -104 -36 -44 -87 -115 -129 -181 -66 -106 -94 -147 -118 -177 -14&#xA;-16 -33 -50 -43 -75 -10 -24 -26 -55 -37 -69 -10 -14 -32 -52 -48 -85 -16 -33&#xA;-38 -76 -49 -95 -39 -72 -97 -196 -110 -235 -7 -22 -21 -51 -30 -65 -21 -30&#xA;-83 -204 -115 -320 -13 -47 -33 -110 -44 -140 -12 -30 -30 -102 -40 -160 -11&#xA;-58 -31 -148 -45 -201 -13 -52 -29 -126 -34 -165 -6 -38 -17 -112 -26 -164&#xA;-52 -320 -56 -388 -56 -825 0 -492 5 -545 92 -1005 11 -58 28 -134 38 -170 11&#xA;-36 26 -106 35 -157 8 -50 26 -115 39 -145 13 -29 29 -80 36 -113 7 -33 23&#xA;-85 35 -116 13 -30 31 -86 40 -124 9 -38 26 -88 39 -110 13 -22 31 -63 39 -92&#xA;9 -29 27 -72 41 -95 14 -24 32 -63 41 -88 8 -24 27 -58 41 -77 13 -18 31 -52&#xA;40 -75 8 -23 25 -56 38 -73 13 -17 32 -49 41 -70 9 -22 25 -49 36 -61 11 -11&#xA;32 -43 47 -71 34 -62 98 -160 128 -193 64 -73 93 -109 117 -150 49 -80 151&#xA;-197 362 -415 80 -83 279 -255 397 -343 23 -18 63 -48 88 -67 25 -19 62 -44&#xA;83 -55 21 -12 58 -36 83 -55 25 -19 51 -35 57 -35 7 0 29 -14 49 -30 20 -17&#xA;55 -37 78 -45 22 -8 55 -25 73 -39 17 -13 52 -32 77 -42 25 -10 65 -31 89 -46&#xA;25 -15 53 -28 62 -28 9 0 43 -14 75 -31 33 -17 100 -44 149 -59 50 -16 115&#xA;-37 145 -48 119 -43 288 -93 350 -103 36 -5 108 -24 160 -41 95 -32 95 -32&#xA;705 -36 627 -4 795 3 880 35 22 9 91 26 153 39 63 13 133 32 155 42 23 10 76&#xA;27 117 37 41 10 95 28 120 40 25 12 70 30 100 40 30 10 67 26 81 36 14 10 51&#xA;27 82 39 30 11 66 29 79 39 13 10 43 28 68 41 25 12 55 32 68 43 12 12 42 33&#xA;66 47 64 37 157 99 192 129 17 14 55 44 84 66 164 124 455 397 507 476 28 43&#xA;68 69 104 69 21 0 22 -2 14 -72 -4 -40 -6 -145 -5 -233 3 -390 10 -663 15&#xA;-678 18 -46 -6 -45 976 -48 508 -2 940 -6 959 -9 46 -8 89 7 95 33 3 12 4&#xA;2758 3 6102 l-3 6080 -1041 3 c-1042 2 -1042 2 -1047 -20z m-2023 -5304 c44&#xA;-13 96 -24 117 -24 58 0 199 -30 240 -50 20 -11 72 -29 115 -40 71 -19 172&#xA;-61 269 -112 22 -12 69 -36 105 -55 36 -19 80 -44 98 -56 18 -12 63 -42 100&#xA;-67 107 -71 139 -97 265 -220 175 -169 364 -411 407 -520 7 -19 24 -50 37 -67&#xA;13 -18 30 -51 38 -73 8 -22 25 -59 39 -82 14 -24 32 -74 42 -113 9 -38 30 -95&#xA;45 -125 16 -32 35 -95 45 -150 9 -52 28 -124 41 -160 17 -46 27 -99 33 -180 5&#xA;-63 14 -139 20 -167 15 -68 7 -489 -13 -708 -15 -167 -78 -442 -126 -550 -12&#xA;-26 -28 -76 -37 -109 -15 -57 -58 -159 -106 -251 -12 -22 -32 -62 -45 -90 -27&#xA;-56 -22 -48 -86 -141 -160 -232 -449 -536 -591 -622 -16 -9 -48 -31 -72 -49&#xA;-24 -18 -62 -42 -86 -54 -23 -12 -58 -32 -78 -44 -19 -13 -53 -29 -75 -35 -22&#xA;-7 -56 -24 -75 -37 -19 -13 -60 -31 -90 -40 -30 -8 -76 -26 -101 -39 -26 -13&#xA;-141 -47 -255 -76 -209 -52 -209 -52 -514 -52 -298 0 -308 0 -430 28 -69 15&#xA;-178 39 -243 52 -67 14 -143 37 -175 53 -31 15 -73 31 -92 35 -19 3 -66 22&#xA;-105 41 -38 19 -90 44 -115 55 -224 103 -540 362 -702 576 -89 118 -108 144&#xA;-124 176 -9 18 -29 49 -44 68 -15 19 -35 55 -44 79 -10 25 -26 57 -37 73 -11&#xA;15 -28 51 -38 80 -10 29 -28 69 -39 88 -11 19 -28 62 -37 94 -9 33 -32 96 -50&#xA;140 -18 45 -38 113 -44 151 -6 39 -20 96 -31 129 -12 32 -25 95 -30 140 -5 44&#xA;-14 124 -20 176 -37 308 -40 558 -10 701 11 52 20 124 20 162 0 48 8 91 29&#xA;150 15 45 36 119 45 165 9 45 32 118 51 162 19 43 35 84 35 92 0 7 20 56 45&#xA;108 25 52 45 100 45 106 0 5 11 26 26 45 14 19 33 52 43 75 10 22 32 60 50 84&#xA;17 24 31 47 31 53 0 5 15 28 33 51 19 23 40 52 47 65 19 36 152 185 244 274&#xA;94 91 232 201 320 254 16 10 49 33 73 51 24 18 63 40 86 49 23 9 58 27 77 40&#xA;19 12 60 31 90 41 30 11 71 29 91 41 20 12 70 31 110 42 41 11 91 26 113 35&#xA;56 22 148 41 251 54 50 6 113 18 140 27 120 39 473 37 609 -3z"></path>
      <path d="M13400 11271 c-442 -6 -456 -7 -502 -28 -26 -12 -76 -27 -110 -33&#xA;-35 -6 -83 -23 -108 -38 -25 -15 -61 -34 -81 -43 -20 -9 -40 -22 -44 -28 -3&#xA;-7 -25 -24 -48 -38 -215 -136 -377 -372 -438 -643 -29 -125 -31 -145 -26 -262&#xA;8 -167 38 -311 88 -419 21 -47 39 -89 39 -94 0 -4 15 -24 33 -45 17 -21 55&#xA;-65 82 -99 49 -59 237 -240 346 -331 70 -59 178 -162 425 -405 334 -330 591&#xA;-580 775 -755 95 -91 246 -235 334 -320 175 -169 235 -216 338 -266 100 -48&#xA;169 -56 448 -52 244 4 244 4 340 50 141 69 173 95 477 398 153 151 387 381&#xA;521 510 134 129 279 269 321 310 215 210 502 483 645 611 88 78 185 171 215&#xA;204 110 123 202 274 224 368 9 37 27 95 42 129 25 61 26 65 22 252 -4 191 -4&#xA;191 -45 306 -43 119 -98 229 -159 315 -47 67 -181 203 -219 222 -16 9 -39 24&#xA;-51 34 -37 34 -214 119 -280 134 -35 8 -92 24 -126 36 -63 21 -63 21 -1543 23&#xA;-814 2 -1685 0 -1935 -3z"></path>
    </g>
  </g>
</svg>